<svg width="177" height="49" viewBox="0 0 177 49" fill="none" xmlns="http://www.w3.org/2000/svg">
<path d="M64.3088 27.7761V1.20325H75.8342C77.0718 1.20325 78.2063 1.45276 79.2376 1.95178C80.2689 2.4508 81.1714 3.112 81.9449 3.93539C82.7184 4.75877 83.3114 5.68196 83.724 6.70495C84.1365 7.72794 84.3428 8.77589 84.3428 9.84878C84.3428 11.3209 83.9947 12.7306 83.2985 14.078C82.6282 15.4004 81.6613 16.4733 80.3979 17.2967C79.1603 18.1201 77.7164 18.5317 76.0662 18.5317H68.6405V27.7761H64.3088ZM68.6405 14.8265H75.7955C76.6206 14.8265 77.3425 14.6144 77.9613 14.1903C78.5801 13.7411 79.0571 13.1423 79.3923 12.3938C79.7533 11.6453 79.9338 10.7969 79.9338 9.84878C79.9338 8.87569 79.7275 8.01488 79.315 7.26635C78.9024 6.51782 78.361 5.94395 77.6906 5.54473C77.046 5.12056 76.3369 4.90848 75.5634 4.90848H68.6405V14.8265Z" fill="#14121B"/>
<path d="M88.4055 27.7761V1.20325H100.356C101.594 1.20325 102.728 1.45276 103.76 1.95178C104.791 2.4508 105.681 3.112 106.428 3.93539C107.202 4.75877 107.795 5.68196 108.207 6.70495C108.646 7.72794 108.865 8.77589 108.865 9.84878C108.865 11.0215 108.646 12.1443 108.207 13.2172C107.769 14.2901 107.137 15.2133 106.312 15.9867C105.513 16.7602 104.572 17.3216 103.489 17.6709L109.948 27.7761H105.075L99.1186 18.5317H92.7372V27.7761H88.4055ZM92.7372 14.8265H100.318C101.117 14.8265 101.826 14.602 102.445 14.1528C103.064 13.7037 103.553 13.1049 103.914 12.3564C104.275 11.5829 104.456 10.747 104.456 9.84878C104.456 8.92559 104.25 8.10221 103.837 7.37863C103.425 6.6301 102.883 6.03127 102.213 5.58215C101.568 5.13304 100.859 4.90848 100.086 4.90848H92.7372V14.8265Z" fill="#14121B"/>
<path d="M113.975 27.7761V1.20325H118.307V27.7761H113.975Z" fill="#14121B"/>
<path d="M147.602 27.7761V8.83827L139.519 23.2101H136.966L128.844 8.83827V27.7761H124.513V1.20325H129.154L138.243 17.4464L147.331 1.20325H151.972V27.7761H147.602Z" fill="#14121B"/>
<path d="M177 24.0709V27.7761H158.165V1.20325H176.652V4.90848H162.497V12.4686H174.757V15.9493H162.497V24.0709H177Z" fill="#14121B"/>
<path d="M22.4015 0.0707986C18.5103 0.330311 14.5746 1.39061 10.8168 3.18495C9.94218 3.60017 9.75688 3.71139 9.79394 3.82261C9.81618 3.89675 10.0163 4.70495 10.2461 5.62437C10.4758 6.54378 10.6908 7.41871 10.7353 7.567C10.802 7.8191 10.9354 7.93032 12.1732 8.79042C13.574 9.76174 17.0205 12.1493 20.6968 14.6851C21.8382 15.471 23.0983 16.3459 23.4911 16.6203L24.2174 17.1171L27.9011 14.7296C31.3921 12.4755 32.8004 11.4819 36.7732 8.47901L37.6552 7.81169L37.9442 7.03315C38.1073 6.6031 38.3445 5.95061 38.4779 5.58729C38.6187 5.21656 38.8262 4.64563 38.9597 4.30456L39.1894 3.69656L38.2407 3.22202C33.3933 0.790019 27.9086 -0.299934 22.4015 0.0707986ZM33.7343 4.86807C33.6972 4.90515 33.2525 5.19432 32.7411 5.51315C32.2297 5.83198 31.3625 6.38066 30.814 6.72173C30.2655 7.07022 29.5836 7.50769 29.2946 7.68564C29.0129 7.86359 27.7529 8.65696 26.5003 9.45032L24.2174 10.8813L23.0908 10.1918C20.1632 8.41227 18.9476 7.64856 17.4726 6.69208C16.598 6.12115 15.6049 5.47607 15.2713 5.26105C14.9304 5.04602 14.6561 4.85324 14.6561 4.83841C14.6561 4.82359 18.9624 4.80876 24.2323 4.80876C29.5021 4.80876 33.7788 4.83841 33.7343 4.86807Z" fill="#14121B"/>
<path d="M0.0102157 2.85854C0.0324513 2.97718 0.136218 3.54811 0.232572 4.14128C0.336338 4.73445 0.551282 6.00235 0.721755 6.95884C0.884817 7.91533 1.22576 9.86538 1.47035 11.2964C2.10036 14.9667 2.5006 17.2726 2.53766 17.4654C2.5599 17.5692 3.73839 18.5405 5.96936 20.2755C7.82974 21.7288 9.44553 23.0041 9.54929 23.1005C9.71236 23.2488 9.96436 23.3081 11.4023 23.5306C13.6406 23.8865 16.5535 24.3388 18.1767 24.5983C18.9105 24.7169 19.5331 24.7911 19.5627 24.7614C19.585 24.7392 19.5479 24.3462 19.4738 23.9013C19.3033 22.8929 18.9253 20.4832 18.4361 17.3838C18.2286 16.0789 18.0581 15.0037 18.0433 14.9963C18.0359 14.9889 15.9606 13.6098 13.4331 11.9267C10.9057 10.2435 8.81552 8.8125 8.78587 8.74577C8.75622 8.67904 8.63022 7.98948 8.50422 7.21835C8.22257 5.4166 7.84456 3.23669 7.82233 3.21445C7.8075 3.19962 6.98479 3.1403 5.98418 3.07357C4.98358 3.00684 3.25662 2.88079 2.14483 2.80664C1.03305 2.72508 0.0843345 2.65835 0.0472751 2.65835C0.00280386 2.65835 -0.0120199 2.74732 0.0102157 2.85854ZM7.13302 9.76158C7.8668 10.2658 8.83775 10.9257 9.28247 11.2297C9.73459 11.5337 10.498 12.0601 10.9872 12.3938C11.4764 12.7349 12.6252 13.5208 13.5443 14.1436C14.4634 14.7739 15.249 15.3226 15.3009 15.367C15.4195 15.4783 15.4714 18.0215 15.3528 17.977C15.3009 17.9548 14.1669 17.1836 12.8328 16.2494C10.4684 14.6033 7.54068 12.5717 5.02064 10.8293C4.34616 10.3696 3.76062 9.93953 3.70874 9.8728C3.6198 9.76158 3.56791 7.61133 3.64944 7.47787C3.67909 7.43338 4.16828 7.72255 4.7464 8.12294C5.32453 8.52333 6.39925 9.25738 7.13302 9.76158ZM6.30289 13.2687C7.77045 14.2771 9.33435 15.3522 11.8618 17.0798C13.1144 17.9325 14.6487 18.9854 15.2713 19.4154L16.3979 20.2014L16.4201 21.4396L16.4349 22.6853L15.8642 22.2849C15.5455 22.0625 14.1224 21.0912 12.6919 20.1198C11.2688 19.1485 9.49741 17.9399 8.76364 17.4432C8.02986 16.939 6.91808 16.1901 6.30289 15.7674L5.16888 15.0037V13.8026C5.16888 13.024 5.19853 12.594 5.243 12.594C5.28747 12.594 5.76183 12.898 6.30289 13.2687Z" fill="#14121B"/>
<path d="M48.1207 2.70291C48.0021 2.71774 46.2825 2.83637 44.3035 2.955C42.332 3.08105 40.7088 3.19227 40.694 3.19969C40.6791 3.22193 40.3011 5.46857 39.9528 7.6114C39.8416 8.31579 39.7304 8.92379 39.7082 8.95345C39.6859 8.99052 37.5884 10.4067 35.0387 12.1121C32.489 13.8175 30.3618 15.2485 30.3173 15.293C30.2654 15.3375 30.1691 15.6563 30.1098 16.0048C30.0431 16.3533 29.8652 17.3172 29.7021 18.155C29.5391 18.9929 29.2056 20.7576 28.961 22.0848C28.709 23.412 28.494 24.539 28.4718 24.5983C28.4273 24.7244 28.6422 24.7096 31.481 24.3092C32.6447 24.1535 34.594 23.8791 35.8169 23.716C37.0399 23.5529 38.122 23.3898 38.2258 23.3601C38.3963 23.3008 45.319 17.9697 45.697 17.6063C45.8749 17.4284 45.8897 17.3913 46.6753 13.595C46.8829 12.6015 47.4239 10.036 47.9798 7.40379C48.5135 4.85315 48.9137 2.91052 48.9285 2.80671C48.936 2.68808 48.595 2.651 48.1207 2.70291ZM44.1775 9.93218C44.1034 9.99891 43.1473 10.6959 42.0429 11.4818C40.0565 12.9055 38.3963 14.0992 34.8979 16.6054C33.838 17.3617 33.0597 17.8807 33.0375 17.8288C33.0153 17.7843 33.0153 17.243 33.0375 16.6202L33.0745 15.4932L33.5711 15.1373C33.8454 14.9445 34.6607 14.3439 35.3871 13.81C36.1134 13.2836 38.1887 11.7636 40.0047 10.4364C41.8206 9.10916 43.5179 7.8635 43.7847 7.67072L44.2665 7.31481L44.2887 8.56047C44.3035 9.67267 44.2961 9.82096 44.1775 9.93218ZM42.4432 13.8694V15.1521L37.2178 18.8817C34.342 20.9281 31.9628 22.589 31.9183 22.5667C31.8812 22.5371 31.8516 21.9958 31.8516 21.3062V20.0902L32.2444 19.8011C32.452 19.6454 33.1931 19.1189 33.875 18.6296C34.5643 18.1476 35.5131 17.4729 35.9874 17.1318C36.4692 16.7907 37.203 16.2717 37.6329 15.9677C38.0627 15.6637 39.2931 14.7888 40.3752 14.0102C41.4574 13.2391 42.3616 12.6015 42.3987 12.6015C42.4283 12.594 42.4506 13.1724 42.4432 13.8694Z" fill="#14121B"/>
<path d="M20.0963 16.7982C20.1185 16.9169 20.2742 18.0216 20.4372 19.2673C20.6003 20.513 20.8153 22.1294 20.919 22.8634L21.1043 24.198V30.6636V37.1366H24.2173H27.3303V30.7674V24.3908L27.5526 22.7003C27.775 20.9578 28.2642 17.2654 28.3235 16.8353C28.3457 16.7093 28.3309 16.598 28.2938 16.598C28.2123 16.598 25.8627 18.0216 24.8992 18.6593L24.2173 19.1116L22.5274 18.0513C20.6596 16.8798 20.1927 16.598 20.1111 16.598C20.0815 16.598 20.0741 16.687 20.0963 16.7982Z" fill="#14121B"/>
<path d="M3.90881 20.6242C3.90881 20.639 3.93846 21.0691 3.98293 21.5733C4.01999 22.0775 4.15341 23.9904 4.27941 25.8219C4.398 27.6459 4.55365 29.848 4.61294 30.7155C4.67224 31.5756 4.82047 33.7778 4.94648 35.6166L5.16883 38.9532L5.40601 39.1608C5.53943 39.2794 6.23614 39.8429 6.94768 40.4139C7.65922 40.9922 8.49676 41.6669 8.80065 41.919C9.10453 42.1711 9.80866 42.7347 10.3571 43.1795C10.9056 43.6244 11.5727 44.1657 11.8321 44.3807C12.0989 44.5957 12.3435 44.7737 12.3732 44.7737C12.4028 44.7737 12.4325 41.3259 12.4325 37.1069V29.4328L10.6759 27.8609L8.91183 26.289L8.87477 25.3621L8.83771 24.4279L7.42945 23.3231C6.65862 22.7225 5.56907 21.8698 5.02059 21.4324C4.04223 20.6538 3.90881 20.5575 3.90881 20.6242Z" fill="#14121B"/>
<path d="M43.3771 21.2765C43.0139 21.5656 42.0207 22.3145 41.1757 22.9522L39.6415 24.1089L39.6044 24.4499C39.5822 24.6353 39.5451 25.184 39.5155 25.6659L39.471 26.5409L37.7885 27.7346C36.8694 28.3871 36.106 28.9284 36.0986 28.9358C36.0912 28.9432 36.0467 31.9981 36.0097 35.7276C35.9652 39.4572 35.9207 43.0014 35.9059 43.6094C35.8911 44.21 35.8985 44.6993 35.9207 44.6993C35.9504 44.6993 37.0029 43.8763 38.2629 42.8753C39.5303 41.8669 41.1016 40.6213 41.7613 40.0948C42.4209 39.5758 42.9768 39.1161 42.9991 39.079C43.0213 39.042 43.1102 37.8779 43.1918 36.4987C43.2733 35.1122 43.3697 33.5329 43.4141 32.9842C43.4512 32.4355 43.5846 30.3149 43.7106 28.2759C43.8366 26.2369 43.9848 23.8345 44.0441 22.9448C44.1701 21.0985 44.1776 20.75 44.1034 20.75C44.0664 20.7575 43.7477 20.9873 43.3771 21.2765Z" fill="#14121B"/>
<path d="M17.769 27.2824C16.8128 27.8089 15.5528 28.4984 14.9747 28.8173L13.9148 29.3882V37.6555V45.9229L15.4342 47.4429C16.4052 48.4142 16.9759 48.9332 17.0204 48.8887C17.0574 48.8442 17.7245 47.1314 18.4953 45.0702L19.9036 41.3258H24.3655H28.8275L29.035 42.0672C29.1536 42.475 29.3982 43.3722 29.5761 44.0692C29.9096 45.3074 30.4803 47.4503 30.7397 48.4068C30.8065 48.6737 30.9028 48.8887 30.9473 48.8887C30.9917 48.8887 31.8145 48.2214 32.7706 47.4058L34.5124 45.9229L34.5198 37.396V28.8692L33.875 28.58C33.5118 28.4243 32.6224 28.0165 31.8886 27.6828C29.413 26.5484 28.8794 26.3111 28.8497 26.3111C28.8275 26.3111 28.8127 29.0768 28.8127 32.4653V38.6194H24.2173H19.6219V32.4653C19.6219 29.0768 19.5997 26.3111 19.5701 26.3185C19.533 26.326 18.7251 26.756 17.769 27.2824Z" fill="#14121B"/>
<path d="M20.5485 43.3797C20.5337 43.4316 20.4151 43.7578 20.2817 44.1063C20.1557 44.4548 19.963 45.0035 19.8444 45.3298C19.7258 45.656 19.3997 46.568 19.1106 47.3539C18.8215 48.1399 18.5844 48.8295 18.5844 48.8888C18.5844 48.9852 19.2959 49 23.9505 49C26.9079 49 29.339 48.9778 29.3538 48.9407C29.3686 48.911 29.1759 48.1177 28.9165 47.1834C28.6571 46.2418 28.3458 45.0925 28.2198 44.6254C28.0938 44.1582 27.953 43.6615 27.9159 43.528L27.8344 43.2907H24.21C21.3712 43.2907 20.5707 43.313 20.5485 43.3797Z" fill="#14121B"/>
<path d="M70.5373 48.8568C69.5535 48.8568 68.6125 48.6854 67.7142 48.3427C66.8303 47.9857 66.0461 47.4716 65.3617 46.8004C64.6773 46.115 64.1355 45.2939 63.7363 44.3371C63.3513 43.3661 63.1588 42.2594 63.1588 41.017C63.1588 39.946 63.3584 38.9535 63.7576 38.0396C64.1569 37.1257 64.7058 36.326 65.4045 35.6405C66.1174 34.9408 66.9443 34.3982 67.8853 34.0126C68.8264 33.627 69.8458 33.4343 70.9437 33.4343C72.3125 33.4343 73.5529 33.7341 74.665 34.3339C75.7772 34.9194 76.6041 35.7262 77.1459 36.7544L74.0448 39.132C73.7454 38.5323 73.2963 38.0539 72.6974 37.6969C72.0986 37.3256 71.4641 37.1399 70.794 37.1399C70.2949 37.1399 69.8387 37.2399 69.4252 37.4398C69.0117 37.6397 68.6481 37.9182 68.3345 38.2752C68.0351 38.6322 67.7998 39.0606 67.6287 39.5604C67.4719 40.0459 67.3934 40.5814 67.3934 41.1669C67.3934 41.7667 67.479 42.3093 67.6501 42.7949C67.8212 43.2804 68.0564 43.7016 68.3559 44.0586C68.6695 44.4014 69.0402 44.6727 69.468 44.8726C69.8957 45.0582 70.3734 45.1511 70.9009 45.1511C71.571 45.1511 72.2127 44.9868 72.8257 44.6584C73.4388 44.3157 73.9949 43.8373 74.4939 43.2233V47.2931C73.3533 48.3355 72.0344 48.8568 70.5373 48.8568ZM74.2801 43.6517H71.4784V40.6528H77.7234V48.7497H74.2801V43.6517Z" fill="#FF2256"/>
<path d="M86.412 48.8782C85.2001 48.8782 84.1592 48.6783 83.2895 48.2784C82.4198 47.8786 81.7069 47.3288 81.1508 46.6291C80.609 45.9293 80.2098 45.1296 79.9531 44.23C79.6965 43.3161 79.5682 42.3593 79.5682 41.3597V33.5414H83.7386V41.3597C83.7386 41.8595 83.7885 42.3379 83.8883 42.7949C83.9882 43.2518 84.145 43.6588 84.3589 44.0158C84.5727 44.3728 84.8436 44.6584 85.1716 44.8726C85.5138 45.0725 85.9272 45.1725 86.412 45.1725C86.911 45.1725 87.3317 45.0725 87.6738 44.8726C88.016 44.6584 88.2869 44.3728 88.4866 44.0158C88.7004 43.6445 88.8573 43.2304 88.9571 42.7734C89.0569 42.3165 89.1068 41.8452 89.1068 41.3597V33.5414H93.2772V41.3597C93.2772 42.4164 93.1347 43.4018 92.8495 44.3157C92.5786 45.2296 92.1651 46.0293 91.6091 46.7147C91.053 47.4002 90.3401 47.9357 89.4704 48.3212C88.6149 48.6925 87.5954 48.8782 86.412 48.8782Z" fill="#FF2256"/>
<path d="M95.6761 48.7497V33.5414H99.8466V48.7497H95.6761Z" fill="#FF2256"/>
<path d="M106.634 41.274V48.7497H102.464V33.5414H105.715L111.81 41.274V33.5414H115.981V48.7497H112.666L106.634 41.274Z" fill="#FF2256"/>
<path d="M117.754 41.017C117.754 40.0888 117.925 39.182 118.267 38.2966C118.623 37.397 119.137 36.583 119.807 35.8547C120.477 35.1265 121.29 34.5481 122.245 34.1197C123.215 33.677 124.305 33.4557 125.517 33.4557C126.971 33.4557 128.24 33.7627 129.324 34.3767C130.408 34.9765 131.213 35.7762 131.741 36.7758L128.554 39.0463C128.369 38.5465 128.098 38.161 127.741 37.8896C127.399 37.6183 127.021 37.4327 126.608 37.3327C126.209 37.2185 125.817 37.1614 125.432 37.1614C124.833 37.1614 124.312 37.2827 123.87 37.5255C123.443 37.754 123.086 38.061 122.801 38.4466C122.53 38.8321 122.323 39.2605 122.181 39.7318C122.052 40.203 121.988 40.6743 121.988 41.1455C121.988 41.6739 122.067 42.1808 122.224 42.6663C122.38 43.1519 122.609 43.5874 122.908 43.973C123.207 44.3442 123.571 44.637 123.999 44.8512C124.441 45.0654 124.933 45.1725 125.474 45.1725C125.859 45.1725 126.251 45.1154 126.651 45.0011C127.05 44.8726 127.413 44.6727 127.741 44.4014C128.069 44.13 128.319 43.7659 128.49 43.3089L131.891 45.3439C131.591 46.0864 131.092 46.7219 130.393 47.2502C129.695 47.7786 128.903 48.1856 128.019 48.4712C127.135 48.7425 126.259 48.8782 125.389 48.8782C124.262 48.8782 123.229 48.6568 122.288 48.2141C121.361 47.7572 120.555 47.1574 119.871 46.4149C119.201 45.658 118.68 44.8155 118.31 43.8873C117.939 42.9448 117.754 41.988 117.754 41.017Z" fill="#FF2256"/>
<path d="M146.806 33.5414V48.7497H142.635V42.7949H137.545V48.7497H133.375V33.5414H137.545V39.1534H142.635V33.5414H146.806Z" fill="#FF2256"/>
<path d="M156.259 48.8782C155.104 48.8782 154.056 48.664 153.115 48.2356C152.174 47.7929 151.361 47.2074 150.677 46.4791C150.007 45.7366 149.486 44.9083 149.116 43.9944C148.759 43.0662 148.581 42.1094 148.581 41.1241C148.581 40.1102 148.774 39.1463 149.159 38.2324C149.543 37.3184 150.078 36.5045 150.763 35.7905C151.461 35.0622 152.281 34.491 153.222 34.0769C154.177 33.6627 155.218 33.4557 156.345 33.4557C157.499 33.4557 158.547 33.677 159.488 34.1197C160.429 34.5481 161.235 35.1336 161.905 35.8762C162.575 36.6187 163.089 37.4541 163.445 38.3823C163.816 39.2962 164.001 40.2387 164.001 41.2098C164.001 42.2094 163.809 43.1661 163.424 44.0801C163.053 44.994 162.518 45.8151 161.82 46.5434C161.135 47.2574 160.323 47.8286 159.382 48.257C158.44 48.6711 157.4 48.8782 156.259 48.8782ZM152.816 41.1669C152.816 41.681 152.887 42.1808 153.03 42.6663C153.172 43.1376 153.386 43.566 153.671 43.9515C153.956 44.3228 154.313 44.6227 154.741 44.8512C155.183 45.0654 155.703 45.1725 156.302 45.1725C156.901 45.1725 157.421 45.0582 157.863 44.8298C158.305 44.6013 158.661 44.2943 158.932 43.9087C159.218 43.5089 159.424 43.0733 159.553 42.6021C159.695 42.1166 159.766 41.6239 159.766 41.1241C159.766 40.61 159.695 40.1173 159.553 39.6461C159.41 39.1749 159.196 38.7536 158.911 38.3823C158.626 37.9967 158.262 37.6969 157.82 37.4827C157.378 37.2685 156.865 37.1614 156.28 37.1614C155.682 37.1614 155.161 37.2756 154.719 37.5041C154.291 37.7326 153.935 38.0396 153.65 38.4252C153.365 38.7964 153.151 39.2248 153.008 39.7104C152.88 40.1816 152.816 40.6671 152.816 41.1669Z" fill="#FF2256"/>
<path d="M174.84 38.5108C174.84 38.5108 174.719 38.4394 174.476 38.2966C174.234 38.1538 173.913 37.9967 173.514 37.8254C173.115 37.6397 172.68 37.4755 172.209 37.3327C171.739 37.1899 171.275 37.1185 170.819 37.1185C170.463 37.1185 170.17 37.1756 169.942 37.2899C169.714 37.4041 169.6 37.5969 169.6 37.8682C169.6 38.1253 169.714 38.3323 169.942 38.4894C170.17 38.6465 170.491 38.7893 170.905 38.9178C171.332 39.0463 171.838 39.2034 172.423 39.3891C173.364 39.6747 174.177 40.0031 174.861 40.3744C175.546 40.7457 176.073 41.224 176.444 41.8095C176.815 42.3807 177 43.1447 177 44.1015C177 45.0154 176.836 45.7865 176.508 46.4149C176.18 47.0289 175.738 47.5216 175.182 47.8928C174.626 48.2641 174.006 48.5355 173.321 48.7068C172.637 48.8639 171.938 48.9424 171.225 48.9424C170.498 48.9424 169.735 48.871 168.937 48.7282C168.153 48.5712 167.39 48.3641 166.649 48.107C165.907 47.8357 165.23 47.5216 164.617 47.1646L166.413 43.5017C166.413 43.5017 166.556 43.5874 166.841 43.7588C167.126 43.9301 167.504 44.1229 167.975 44.3371C168.445 44.5513 168.966 44.7441 169.536 44.9154C170.12 45.0868 170.705 45.1725 171.29 45.1725C171.746 45.1725 172.059 45.1154 172.231 45.0011C172.416 44.8726 172.509 44.7084 172.509 44.5085C172.509 44.2086 172.352 43.9801 172.038 43.823C171.724 43.6517 171.311 43.4946 170.798 43.3518C170.299 43.1947 169.743 43.0162 169.129 42.8163C168.245 42.5164 167.518 42.1808 166.948 41.8095C166.378 41.424 165.957 40.9741 165.686 40.4601C165.415 39.9317 165.28 39.2962 165.28 38.5537C165.28 37.4255 165.544 36.4831 166.071 35.7262C166.599 34.9694 167.29 34.3982 168.146 34.0126C169.015 33.6128 169.949 33.4128 170.947 33.4128C171.689 33.4128 172.402 33.5057 173.086 33.6913C173.785 33.8627 174.433 34.0769 175.032 34.3339C175.645 34.5909 176.18 34.8337 176.636 35.0622L174.84 38.5108Z" fill="#FF2256"/>
</svg>
